<?xml version="1.0" encoding="utf-8"?>
<!-- Generator: Adobe Illustrator 27.4.1, SVG Export Plug-In . SVG Version: 6.00 Build 0)  -->
<svg version="1.1" id="Layer_1" xmlns="http://www.w3.org/2000/svg" xmlns:xlink="http://www.w3.org/1999/xlink" x="0px" y="0px"
	 viewBox="0 0 49.8 49.9" style="enable-background:new 0 0 49.8 49.9;" xml:space="preserve">
<style type="text/css">
	.st0{fill:#FFFFFF;}
	.st1{fill-rule:evenodd;clip-rule:evenodd;fill:#FFFFFF;}
	.st2{fill:url(#Subtract_00000009555389060480830060000000436604681051549856_);}
	.st3{fill:#2D2D2D;}
</style>
<g id="Frame_14729">
	<g id="Group_15153">
		<circle id="Ellipse_573" class="st0" cx="24.9" cy="24.6" r="24"/>
		<g id="Group_15049">
			<path id="Ellipse_548__x28_Stroke_x29_" class="st1" d="M24.9,46.9c12.3,0,22.3-10,22.3-22.3S37.3,2.2,24.9,2.2
				S2.6,12.2,2.6,24.6S12.6,46.9,24.9,46.9z M24.9,48.6c13.3,0,24-10.7,24-24s-10.7-24-24-24s-24,10.7-24,24S11.7,48.6,24.9,48.6z"
				/>
			<g id="Group_15153_x5F_2">
				
					<linearGradient id="Subtract_00000168813620029329665850000000545963130245494956_" gradientUnits="userSpaceOnUse" x1="34.1721" y1="41.6806" x2="23.252" y2="41.6806" gradientTransform="matrix(1 0 0 -1 0 66)">
					<stop  offset="0" style="stop-color:#13394B"/>
					<stop  offset="1" style="stop-color:#FFFFFF;stop-opacity:0.5"/>
				</linearGradient>
				<path id="Subtract" style="fill:url(#Subtract_00000168813620029329665850000000545963130245494956_);" d="M40.2,34.9l-9.8-21.1
					l-7.2,15.5c2.1-0.7,4.3-2.3,5.9-5.2h0l1.3-2.8l6.3,13.7H40.2z"/>
				<path id="Subtract_2" class="st3" d="M12.5,24.3c0-4.4,3.5-7.9,7.9-7.9c1.2,0,2.4,0.3,3.4,0.8l1.3-2.8c-1.4-0.7-3.1-1.1-4.8-1.1
					c-6.1,0-11,4.9-11,11c0,6.1,4.9,11,11,11c2.7,0,5-1.3,6.7-3.1c1.7-1.9,2.3-3.2,2.3-3.2c-2.3,2-5.1,3.2-8.8,3.2l0,0
					c0,0-0.1,0-0.1,0C16,32.2,12.5,28.7,12.5,24.3z"/>
			</g>
		</g>
	</g>
</g>
</svg>
