<svg xmlns="http://www.w3.org/2000/svg">
	<symbol id="account-circle" viewBox="0 0 24 24">
		<path
			d="M12 0C5.376 0 0 5.376 0 12C0 18.624 5.376 24 12 24C18.624 24 24 18.624 24 12C24 5.376 18.624 0 12 0ZM12 4.8C14.316 4.8 16.2 6.684 16.2 9C16.2 11.316 14.316 13.2 12 13.2C9.684 13.2 7.8 11.316 7.8 9C7.8 6.684 9.684 4.8 12 4.8ZM12 21.6C9.564 21.6 6.684 20.616 4.632 18.144C6.66 16.56 9.216 15.6 12 15.6C14.784 15.6 17.34 16.56 19.368 18.144C17.316 20.616 14.436 21.6 12 21.6Z"
			fill="currentColor" />
	</symbol>
	<symbol id="hambearger" viewBox="0 0 43 42">
		<path
			d="M6.78512 3.63254L5.92976 1L5.0744 3.63254C5.03127 3.76527 4.90758 3.85514 4.76801 3.85514H2L4.23937 5.48214C4.35228 5.56417 4.39953 5.70958 4.3564 5.84231L3.50103 8.47485L5.74041 6.84785C5.85331 6.76582 6.00621 6.76582 6.11911 6.84785L8.35849 8.47485L7.50312 5.84231C7.45999 5.70958 7.50724 5.56417 7.62015 5.48214L9.85952 3.85514H7.09151C6.95194 3.85514 6.82825 3.76527 6.78512 3.63254ZM31.3203 25.5888L31.3207 25.6115H31.3151C31.3244 25.894 31.3319 26.1859 31.1813 26.2026C31.0661 26.2045 30.9399 26.2045 30.8043 26.2045H30.8039H27.835C27.3081 26.2026 26.9274 26.2026 26.8723 26.2026H26.872C26.4927 26.013 26.8906 25.3977 27.3776 25.2322C27.5989 25.156 27.8015 25.13 27.9781 25.13C28.2731 25.13 28.5026 25.2048 28.6529 25.2538L28.653 25.2538L28.653 25.2538C28.7262 25.2777 28.7806 25.2954 28.8147 25.2954C28.8277 25.2954 28.8351 25.2954 28.8444 25.288C28.9072 25.2508 28.7494 25.0683 28.5025 24.7827C27.7982 23.968 26.3686 22.3143 27.2605 20.8002C27.2605 20.7072 26.8887 20.4284 26.7028 20.4284C26.6021 20.4284 26.481 20.4966 26.3043 20.596C25.8286 20.8637 24.9503 21.3579 22.9847 21.3579C21.0674 21.3579 20.1357 20.9488 19.5977 20.7126C19.3792 20.6167 19.2257 20.5492 19.0974 20.5492C19.0313 20.5492 18.8135 20.7381 18.6939 20.8418L18.6939 20.8418L18.6939 20.8418C18.6487 20.881 18.6176 20.908 18.614 20.908C17.9688 21.6516 17.7693 22.5122 17.6022 23.2333C17.4376 23.9437 17.3043 24.5189 16.807 24.7135C16.2446 24.9982 16.0464 25.2264 15.9276 25.363C15.8586 25.4423 15.8165 25.4908 15.7455 25.5018H13.6968C13.6772 25.5018 13.4739 25.6793 13.271 25.8566L13.271 25.8566C13.0883 26.0161 12.9059 26.1754 12.8584 26.2045H8.71823C8.68104 26.2026 8.65316 26.2026 8.64386 26.2026C8.3334 26.0167 9.17927 25.2415 9.54179 25.1058C9.59756 25.0835 9.66821 25.076 9.74071 25.076C9.89249 25.076 10.0748 25.1134 10.2589 25.1511C10.447 25.1896 10.637 25.2285 10.7985 25.2285C10.9101 25.2285 11.0086 25.2062 11.0867 25.156C11.2206 25.0649 11.3095 24.8307 11.4301 24.5128C11.5607 24.1687 11.7286 23.7264 12.0311 23.2616C12.1947 23.0069 12.401 22.7411 12.665 22.4845C12.7558 22.3951 12.7903 22.0992 12.8367 21.6997C12.9111 21.0605 13.0164 20.156 13.4328 19.4078C13.299 19.3446 13.1298 19.3185 12.9532 19.3185C12.5944 19.3185 12.1798 19.4282 11.8526 19.5751C11.5804 19.6974 11.3941 19.9395 11.1954 20.1978C11.0859 20.34 10.9728 20.4871 10.8394 20.6217C10.6145 20.8504 10.3375 21.04 9.92847 21.1237C9.83738 21.1367 9.74629 21.1367 9.66077 21.1367C9.34101 21.1367 9.06029 21.0772 8.82791 21.0177C8.74257 20.9952 8.66347 20.9721 8.5915 20.9511L8.59149 20.9511C8.4377 20.9062 8.31651 20.8708 8.23673 20.8708H8.23301C8.1221 20.8829 7.89838 20.9195 7.61548 20.9658L7.61531 20.9659L7.61516 20.9659C6.89751 21.0834 5.79925 21.2631 5.1953 21.2631C4.89785 21.1869 4.41449 20.8746 3.9962 20.5455C3.54259 20.1867 3.17264 19.8149 3.2154 19.7015C3.26274 19.6109 3.4749 19.4076 3.73797 19.1555C4.19807 18.7146 4.81389 18.1246 4.97593 17.7272C5.02069 17.6192 5.01449 17.4355 5.00818 17.2485C5.00113 17.0393 4.99393 16.8261 5.05773 16.7103C5.25129 16.3579 5.65766 15.8987 5.97565 15.5394C6.13411 15.3603 6.27063 15.206 6.34792 15.1022C6.39975 15.0374 6.39628 14.9308 6.39217 14.8045C6.3839 14.5504 6.37304 14.2165 6.80525 13.983C6.95955 13.9161 7.0934 13.8901 7.21052 13.8901C7.44172 13.8901 7.59314 13.9974 7.70348 14.0756C7.74753 14.1068 7.78502 14.1334 7.81844 14.1466L7.81812 14.1066C7.81559 13.8848 7.811 13.4831 8.36686 13.2524C8.42263 13.2412 8.48398 13.232 8.53975 13.232C9.02311 13.232 9.3689 13.7134 9.39864 13.8231C9.47874 13.7699 9.59154 13.6408 9.73427 13.4774C10.0752 13.087 10.5869 12.5012 11.2317 12.2875C11.2689 12.2758 11.3291 12.2697 11.3901 12.2636C11.4541 12.2572 11.5189 12.2507 11.5589 12.2374C11.7687 12.1042 12.2788 11.8673 12.751 11.648C13.103 11.4845 13.4339 11.3309 13.6038 11.2372C13.7273 11.1697 13.8957 11.071 14.0907 10.9567L14.0907 10.9567C14.8088 10.5359 15.8872 9.90389 16.4092 9.84102C16.478 9.82801 16.5523 9.82801 16.6248 9.82801C17.3275 9.82801 18.2812 10.1738 19.0974 10.4991C19.2294 10.5517 19.3576 10.6035 19.4802 10.6531C19.9999 10.8633 20.42 11.0333 20.6125 11.0438H20.6608C20.9152 11.0438 21.5464 10.9719 22.3076 10.8852C23.2379 10.7792 24.3624 10.6511 25.2304 10.6051L25.3668 10.6L25.367 10.6C25.5236 10.594 25.6704 10.5884 25.8049 10.5884C25.8521 10.5884 25.8979 10.5894 25.9419 10.5903L25.942 10.5903C25.9828 10.5912 26.022 10.5921 26.0596 10.5921C27.7811 10.6255 29.3092 10.8709 30.5994 11.2502C32.5886 11.8377 34.0089 12.7542 34.6726 13.7618C34.7188 13.7807 34.7795 13.8015 34.8464 13.8245C35.0484 13.8938 35.3078 13.9828 35.4014 14.1001L35.4347 14.142C35.6475 14.4079 35.966 14.8061 35.7155 15.5558C36.329 16.1154 37.0318 17.8759 37.0708 18.7366L37.1005 18.7236C37.1136 19.8335 37.2251 20.9768 37.3329 21.5513C37.4206 22.0058 37.7731 22.3946 38.0758 22.7283C38.3574 23.0387 38.5958 23.3016 38.5376 23.5256C38.1333 24.3323 37.9605 24.9218 37.8457 25.3134C37.7261 25.7214 37.6695 25.9145 37.4798 25.9145H34.2562C34.113 25.881 34.0963 25.7639 34.1483 25.6115C34.2469 25.3326 34.602 24.9533 34.9552 24.8176C35.0686 24.7749 35.1894 24.7581 35.314 24.7581C35.4881 24.7581 35.6641 24.788 35.8198 24.8145C35.8803 24.8248 35.9377 24.8345 35.9907 24.8418C36.0483 24.8511 36.0985 24.8548 36.1468 24.8548C36.2547 24.8548 36.3327 24.8251 36.3458 24.7284C36.329 24.5555 36.1041 24.4254 35.7806 24.3064C35.4437 24.1845 34.9968 24.0837 34.5521 23.9833C33.9661 23.8512 33.384 23.7199 33.0627 23.5423C32.9474 23.4419 32.8433 23.3954 32.7355 23.3954C32.477 23.3954 32.2298 23.6576 31.9156 24.0034C31.714 24.2536 31.594 24.5725 31.502 24.8168L31.502 24.8169C31.4464 24.9646 31.4011 25.0851 31.3542 25.1467C31.3132 25.2412 31.3166 25.411 31.3203 25.5888ZM39.601 32.6818C40.2888 33.0258 40.0162 33.9171 39.2472 33.9171H5.95176C5.1827 33.9171 4.91011 33.0258 5.59794 32.6818C9.425 30.7678 15.6148 29.5244 22.5995 29.5244C29.5841 29.5244 35.7739 30.7678 39.601 32.6818ZM38.6533 41C39.4155 41 40.0335 40.3821 40.0335 39.6198C40.0335 38.8575 39.4155 38.2395 38.6532 38.2395H6.55107C5.78878 38.2395 5.17082 38.8575 5.17082 39.6198C5.17082 40.3821 5.78878 41 6.55107 41H38.6533Z"
			fill="currentColor" />
	</symbol>
	<symbol id="language" viewBox="0 0 20 20">
		<path
			d="M10 20C8.63333 20 7.34167 19.7375 6.125 19.2125C4.90833 18.6875 3.84583 17.9708 2.9375 17.0625C2.02917 16.1542 1.3125 15.0917 0.7875 13.875C0.2625 12.6583 0 11.3667 0 10C0 8.61667 0.2625 7.32083 0.7875 6.1125C1.3125 4.90417 2.02917 3.84583 2.9375 2.9375C3.84583 2.02917 4.90833 1.3125 6.125 0.7875C7.34167 0.2625 8.63333 0 10 0C11.3833 0 12.6792 0.2625 13.8875 0.7875C15.0958 1.3125 16.1542 2.02917 17.0625 2.9375C17.9708 3.84583 18.6875 4.90417 19.2125 6.1125C19.7375 7.32083 20 8.61667 20 10C20 11.3667 19.7375 12.6583 19.2125 13.875C18.6875 15.0917 17.9708 16.1542 17.0625 17.0625C16.1542 17.9708 15.0958 18.6875 13.8875 19.2125C12.6792 19.7375 11.3833 20 10 20ZM10 17.95C10.4333 17.35 10.8083 16.725 11.125 16.075C11.4417 15.425 11.7 14.7333 11.9 14H8.1C8.3 14.7333 8.55833 15.425 8.875 16.075C9.19167 16.725 9.56667 17.35 10 17.95ZM7.4 17.55C7.1 17 6.8375 16.4292 6.6125 15.8375C6.3875 15.2458 6.2 14.6333 6.05 14H3.1C3.58333 14.8333 4.1875 15.5583 4.9125 16.175C5.6375 16.7917 6.46667 17.25 7.4 17.55ZM12.6 17.55C13.5333 17.25 14.3625 16.7917 15.0875 16.175C15.8125 15.5583 16.4167 14.8333 16.9 14H13.95C13.8 14.6333 13.6125 15.2458 13.3875 15.8375C13.1625 16.4292 12.9 17 12.6 17.55ZM2.25 12H5.65C5.6 11.6667 5.5625 11.3375 5.5375 11.0125C5.5125 10.6875 5.5 10.35 5.5 10C5.5 9.65 5.5125 9.3125 5.5375 8.9875C5.5625 8.6625 5.6 8.33333 5.65 8H2.25C2.16667 8.33333 2.10417 8.6625 2.0625 8.9875C2.02083 9.3125 2 9.65 2 10C2 10.35 2.02083 10.6875 2.0625 11.0125C2.10417 11.3375 2.16667 11.6667 2.25 12ZM7.65 12H12.35C12.4 11.6667 12.4375 11.3375 12.4625 11.0125C12.4875 10.6875 12.5 10.35 12.5 10C12.5 9.65 12.4875 9.3125 12.4625 8.9875C12.4375 8.6625 12.4 8.33333 12.35 8H7.65C7.6 8.33333 7.5625 8.6625 7.5375 8.9875C7.5125 9.3125 7.5 9.65 7.5 10C7.5 10.35 7.5125 10.6875 7.5375 11.0125C7.5625 11.3375 7.6 11.6667 7.65 12ZM14.35 12H17.75C17.8333 11.6667 17.8958 11.3375 17.9375 11.0125C17.9792 10.6875 18 10.35 18 10C18 9.65 17.9792 9.3125 17.9375 8.9875C17.8958 8.6625 17.8333 8.33333 17.75 8H14.35C14.4 8.33333 14.4375 8.6625 14.4625 8.9875C14.4875 9.3125 14.5 9.65 14.5 10C14.5 10.35 14.4875 10.6875 14.4625 11.0125C14.4375 11.3375 14.4 11.6667 14.35 12ZM13.95 6H16.9C16.4167 5.16667 15.8125 4.44167 15.0875 3.825C14.3625 3.20833 13.5333 2.75 12.6 2.45C12.9 3 13.1625 3.57083 13.3875 4.1625C13.6125 4.75417 13.8 5.36667 13.95 6ZM8.1 6H11.9C11.7 5.26667 11.4417 4.575 11.125 3.925C10.8083 3.275 10.4333 2.65 10 2.05C9.56667 2.65 9.19167 3.275 8.875 3.925C8.55833 4.575 8.3 5.26667 8.1 6ZM3.1 6H6.05C6.2 5.36667 6.3875 4.75417 6.6125 4.1625C6.8375 3.57083 7.1 3 7.4 2.45C6.46667 2.75 5.6375 3.20833 4.9125 3.825C4.1875 4.44167 3.58333 5.16667 3.1 6Z"
			fill="currentColor" />
	</symbol>
	<symbol id="search" viewBox="0 0 18 18">
		<path
			d="M6.5 13C4.68333 13 3.14583 12.3708 1.8875 11.1125C0.629167 9.85417 0 8.31667 0 6.5C0 4.68333 0.629167 3.14583 1.8875 1.8875C3.14583 0.629167 4.68333 0 6.5 0C8.31667 0 9.85417 0.629167 11.1125 1.8875C12.3708 3.14583 13 4.68333 13 6.5C13 7.23333 12.8833 7.925 12.65 8.575C12.4167 9.225 12.1 9.8 11.7 10.3L17.3 15.9C17.4833 16.0833 17.575 16.3167 17.575 16.6C17.575 16.8833 17.4833 17.1167 17.3 17.3C17.1167 17.4833 16.8833 17.575 16.6 17.575C16.3167 17.575 16.0833 17.4833 15.9 17.3L10.3 11.7C9.8 12.1 9.225 12.4167 8.575 12.65C7.925 12.8833 7.23333 13 6.5 13ZM6.5 11C7.75 11 8.8125 10.5625 9.6875 9.6875C10.5625 8.8125 11 7.75 11 6.5C11 5.25 10.5625 4.1875 9.6875 3.3125C8.8125 2.4375 7.75 2 6.5 2C5.25 2 4.1875 2.4375 3.3125 3.3125C2.4375 4.1875 2 5.25 2 6.5C2 7.75 2.4375 8.8125 3.3125 9.6875C4.1875 10.5625 5.25 11 6.5 11Z"
			fill="currentColor" />
	</symbol>
</svg>