<?xml version="1.0" encoding="utf-8"?>
<!-- Generator: Adobe Illustrator 27.4.1, SVG Export Plug-In . SVG Version: 6.00 Build 0)  -->
<svg version="1.1" id="Layer_1" xmlns="http://www.w3.org/2000/svg" xmlns:xlink="http://www.w3.org/1999/xlink" x="0px" y="0px"
	 viewBox="0 0 32 32" style="enable-background:new 0 0 32 32;" xml:space="preserve">
<style type="text/css">
	.st0{fill:#D9D9D9;}
</style>
<g>
	<path class="st0" d="M16,0C7.2,0,0,7.2,0,16s7.2,16,16,16s16-7.2,16-16S24.8,0,16,0z M25.6,28.2c0,0.1,0,0.2,0,0.3
		c-2.6,3.5-14.6,5-19.1,0c0-0.1,0-0.2,0-0.3c-3.7-2.8-6-7.3-6-12.2C0.5,7.4,7.4,0.5,16,0.5S31.5,7.4,31.5,16
		C31.5,20.9,29.2,25.3,25.6,28.2z"/>
	<path d="M6.5,28.2c0,0.1,0,0.2,0,0.3c4.5,5,16.5,3.5,19.1,0c0-0.1,0-0.2,0-0.3c-2.6,2.1-6,3.3-9.6,3.3C12.4,31.5,9.1,30.3,6.5,28.2
		z"/>
	<path class="st0" d="M16,0.5C7.4,0.5,0.5,7.4,0.5,16c0,5,2.4,9.4,6,12.2c0.1-6.6,4.6-11.1,9.5-11.1c4.9,0,9.4,4.5,9.6,11.1
		c3.6-2.8,5.9-7.2,5.9-12.2C31.5,7.4,24.6,0.5,16,0.5z M16,15.1c-3,0-5.7-2.6-5.7-5.7c0-3,2.6-5.7,5.7-5.7c3,0,5.7,2.6,5.7,5.7
		C21.7,12.5,19.1,15.2,16,15.1z"/>
</g>
</svg>
